<?xml version="1.0" standalone="no"?>
<!DOCTYPE svg PUBLIC "-//W3C//DTD SVG 20010904//EN"
 "http://www.w3.org/TR/2001/REC-SVG-20010904/DTD/svg10.dtd">
<svg version="1.0" xmlns="http://www.w3.org/2000/svg"
 width="700.000000pt" height="700.000000pt" viewBox="0 0 700.000000 700.000000"
 preserveAspectRatio="xMidYMid meet">
<metadata>
Created by potrace 1.14, written by Peter Selinger 2001-2017
</metadata>
<g transform="translate(0.000000,700.000000) scale(0.100000,-0.100000)"
fill="#000000" stroke="none">
<path d="M1668 6565 c-2 -2 -49 -5 -106 -9 -57 -3 -106 -7 -110 -10 -4 -2 -28
-7 -54 -10 -114 -15 -373 -108 -473 -169 -206 -125 -285 -188 -426 -332 -164
-170 -301 -393 -396 -645 -22 -58 -69 -238 -89 -345 -14 -70 -17 -4382 -4
-4444 15 -68 76 -134 142 -152 27 -7 133 -12 287 -13 211 -1 250 1 290 17 58
22 93 53 122 108 l23 44 1 2165 c1 1191 5 2181 9 2200 50 256 170 451 359 583
256 179 613 177 881 -4 72 -49 246 -217 246 -237 0 -8 -9 -31 -19 -51 -64
-119 -126 -308 -146 -448 -3 -23 -8 -57 -10 -75 -6 -43 -6 -254 0 -296 12 -90
17 -121 27 -162 5 -25 11 -53 14 -64 2 -10 15 -55 30 -100 57 -176 180 -393
299 -524 65 -71 67 -55 -22 -150 -61 -65 -74 -162 -34 -246 27 -55 207 -231
262 -255 53 -24 132 -22 184 5 40 21 2375 2351 2406 2401 11 18 23 57 26 88 9
87 -11 126 -132 246 -126 125 -158 144 -240 143 -72 0 -108 -17 -176 -84 l-51
-50 -81 69 c-175 146 -354 243 -557 303 -180 53 -400 74 -586 55 -144 -15
-346 -73 -489 -142 -40 -19 -74 -35 -77 -35 -2 0 -59 54 -127 120 -235 228
-478 370 -762 444 -117 31 -131 34 -254 46 -146 15 -184 18 -187 15z"/>
<path d="M4987 4368 c-198 -42 -237 -306 -59 -400 112 -59 241 -20 296 90 81
165 -59 349 -237 310z"/>
<path d="M5865 4370 c-108 -26 -175 -107 -175 -215 0 -121 96 -215 217 -215
198 1 289 236 145 376 -48 46 -124 68 -187 54z"/>
<path d="M6732 4369 c-113 -24 -193 -159 -161 -273 33 -116 181 -189 292 -142
49 20 102 76 122 128 59 158 -85 322 -253 287z"/>
<path d="M4527 3925 c-161 -55 -202 -261 -74 -370 104 -89 254 -64 328 55 24
39 28 53 26 115 -2 57 -7 78 -29 112 -52 80 -162 119 -251 88z"/>
<path d="M5394 3924 c-109 -38 -171 -170 -130 -278 55 -144 234 -191 346 -90
73 66 95 160 58 246 -21 50 -72 103 -115 119 -43 16 -117 17 -159 3z"/>
<path d="M6290 3930 c-135 -39 -203 -188 -141 -308 41 -80 116 -123 206 -118
68 4 102 21 149 70 96 103 64 275 -63 341 -35 18 -114 26 -151 15z"/>
<path d="M4065 3476 c-56 -26 -74 -43 -104 -102 -77 -148 55 -329 224 -308
186 23 254 263 108 383 -68 56 -147 65 -228 27z"/>
<path d="M4955 3486 c-88 -33 -153 -144 -139 -238 25 -170 239 -244 362 -125
46 44 61 76 68 144 5 51 2 65 -23 113 -51 96 -167 142 -268 106z"/>
<path d="M5838 3486 c-57 -20 -85 -42 -116 -88 -23 -36 -27 -51 -27 -117 0
-81 12 -110 64 -160 114 -110 310 -54 355 101 49 169 -112 322 -276 264z"/>
<path d="M4505 3041 c-209 -97 -146 -409 82 -413 128 -1 223 91 223 217 0 157
-164 262 -305 196z"/>
<path d="M5371 3037 c-159 -83 -158 -306 1 -385 57 -29 100 -33 156 -16 128
37 194 178 138 295 -39 85 -92 120 -186 126 -54 3 -73 0 -109 -20z"/>
<path d="M4103 2618 c-55 -12 -126 -75 -149 -133 -51 -134 40 -281 182 -293
131 -11 237 86 236 215 -1 144 -124 240 -269 211z"/>
<path d="M4967 2614 c-96 -33 -151 -110 -151 -208 0 -38 6 -73 17 -93 72 -136
245 -165 351 -59 131 131 50 352 -135 369 -24 2 -61 -2 -82 -9z"/>
<path d="M4528 2175 c-55 -19 -85 -41 -113 -83 -66 -102 -45 -224 52 -298 138
-105 343 -1 343 173 0 150 -144 256 -282 208z"/>
<path d="M4082 1737 c-48 -15 -119 -87 -131 -133 -22 -86 -14 -136 30 -201 88
-128 301 -112 367 29 29 61 32 108 12 168 -39 116 -159 175 -278 137z"/>
</g>
</svg>
